<?xml version="1.0" encoding="UTF-8" standalone="no"?>
<svg width="94" xmlns="http://www.w3.org/2000/svg" viewBox="0 0 94 33" height="33">
 <path fill="#fff" d="m0.29356 17.48c0.43734 0 0.76804-0.037 0.99204-0.112s0.384-0.213 0.48-0.416 0.144-0.512 0.144-0.928v-9.984h2.64v10.096c0 0.736-0.0907 1.339-0.272 1.808-0.1707 0.459-0.4747 0.805-0.912 1.04-0.4374 0.224-1.0347 0.336-1.792 0.336h-1.28v-1.84zm6.2058-11.44h5.6476v1.824h-3.0236v3.44h2.3356v1.84h-2.3356v4.064h3.0556v1.792h-5.6796v-12.96zm8.2476 1.952h-2v-1.952h6.624v1.952h-1.968v11.008h-2.656v-11.008zm11.015 0h-2v-1.952h6.624v1.952h-1.968v11.008h-2.656v-11.008zm5.8-1.952h5.648v1.824h-3.024v3.44h2.336v1.84h-2.336v4.064h3.056v1.792h-5.68v-12.96zm10.631 13.136c-1.376 0-2.352-0.368-2.928-1.104-0.576-0.747-0.864-1.819-0.864-3.216v-4.64c0-1.4293 0.283-2.5067 0.848-3.232 0.576-0.736 1.557-1.104 2.944-1.104 1.323 0 2.256 0.3253 2.8 0.976 0.555 0.64 0.832 1.5627 0.832 2.768v1.088h-2.56v-1.2c0-0.384-0.021-0.6933-0.064-0.928-0.032-0.2347-0.128-0.4267-0.288-0.576-0.149-0.16-0.384-0.24-0.704-0.24-0.48 0-0.789 0.1547-0.928 0.464s-0.208 0.7627-0.208 1.36v5.888c0 0.608 0.08 1.061 0.24 1.36s0.459 0.448 0.896 0.448c0.448 0 0.736-0.149 0.864-0.448 0.128-0.309 0.192-0.763 0.192-1.36v-1.264h2.56v1.072c0 1.237-0.272 2.197-0.816 2.88-0.544 0.672-1.483 1.008-2.816 1.008zm5.276-13.136h2.64v5.312h2.288v-5.312h2.64v12.96h-2.64v-5.744h-2.288v5.744h-2.64v-12.96zm9.546 0h1.84l2.88 6.736v-6.736h2.192v12.96h-1.776l-2.88-7.168v7.168h-2.256v-12.96zm8.891 0h2.624v12.96h-2.624v-12.96zm8.193 13.136c-1.376 0-2.352-0.368-2.928-1.104-0.576-0.747-0.864-1.819-0.864-3.216v-4.64c0-1.4293 0.283-2.5067 0.848-3.232 0.576-0.736 1.558-1.104 2.944-1.104 1.323 0 2.256 0.3253 2.8 0.976 0.555 0.64 0.832 1.5627 0.832 2.768v1.088h-2.56v-1.2c0-0.384-0.021-0.6933-0.064-0.928-0.032-0.2347-0.128-0.4267-0.288-0.576-0.149-0.16-0.384-0.24-0.704-0.24-0.48 0-0.789 0.1547-0.928 0.464-0.138 0.3093-0.208 0.7627-0.208 1.36v5.888c0 0.608 0.08 1.061 0.24 1.36s0.459 0.448 0.896 0.448c0.448 0 0.736-0.149 0.864-0.448 0.128-0.309 0.192-0.763 0.192-1.36v-1.264h2.56v1.072c0 1.237-0.272 2.197-0.816 2.88-0.544 0.672-1.482 1.008-2.816 1.008zm7.116-13.136h2.928l2.496 12.96h-2.432l-0.48-2.848h-2.048l-0.496 2.848h-2.48l2.512-12.96zm2.256 8.48l-0.784-5.216-0.768 5.216h1.552zm4.482-8.48h2.624v11.168h3.056v1.792h-5.68v-12.96z" transform="translate(0 -5)"/>
 <path fill="#fff" d="m9.9695 15.108c-0.816 0-1.44-0.252-1.872-0.756-0.424-0.504-0.66-1.196-0.708-2.076l1.2-0.324c0.04 0.624 0.16 1.128 0.36 1.512 0.208 0.384 0.548 0.576 1.02 0.576 0.3525 0 0.6165-0.096 0.7925-0.288 0.184-0.2 0.276-0.484 0.276-0.852 0-0.4-0.084-0.732-0.252-0.996s-0.436-0.556-0.8045-0.876l-1.632-1.44c-0.328-0.288-0.568-0.596-0.72-0.924-0.144-0.336-0.216-0.744-0.216-1.224 0-0.712 0.204-1.264 0.612-1.656s0.964-0.588 1.668-0.588c0.7685 0 1.3485 0.204 1.7405 0.612s0.628 1.04 0.708 1.896l-1.152 0.312c-0.04-0.568-0.152-1.004-0.336-1.308-0.176-0.312-0.496-0.468-0.9605-0.468-0.344 0-0.608 0.092-0.792 0.276-0.184 0.176-0.276 0.44-0.276 0.792 0 0.288 0.048 0.532 0.144 0.732 0.096 0.192 0.26 0.388 0.492 0.588l1.6445 1.44c0.424 0.376 0.76 0.784 1.008 1.224 0.256 0.44 0.384 0.94 0.384 1.5 0 0.712-0.216 1.276-0.648 1.692s-0.992 0.624-1.6805 0.624zm4.1715-9.828h1.332v9.72h-1.332v-9.72zm3.625 0h0.924l2.76 6.456v-6.456h1.128v9.72h-0.864l-2.796-6.636v6.636h-1.152v-9.72zm9.496 9.828c-0.96 0-1.636-0.284-2.028-0.852-0.392-0.576-0.588-1.368-0.588-2.376v-3.432c0-1.064 0.192-1.872 0.576-2.424s1.064-0.828 2.04-0.828c0.872 0 1.496 0.236 1.872 0.708 0.384 0.472 0.576 1.168 0.576 2.088v0.768h-1.284v-0.684c0-0.448-0.02-0.792-0.06-1.032s-0.144-0.432-0.312-0.576c-0.16-0.144-0.42-0.216-0.78-0.216-0.368 0-0.644 0.08-0.828 0.24-0.176 0.152-0.292 0.368-0.348 0.648-0.056 0.272-0.084 0.64-0.084 1.104v3.852c0 0.496 0.04 0.884 0.12 1.164s0.208 0.48 0.384 0.6c0.184 0.12 0.436 0.18 0.756 0.18 0.344 0 0.6-0.076 0.768-0.228s0.272-0.36 0.312-0.624c0.048-0.264 0.072-0.624 0.072-1.08v-0.72h1.284v0.72c0 0.968-0.184 1.712-0.552 2.232-0.36 0.512-0.992 0.768-1.896 0.768zm4.46-9.828h3.768v1.008h-2.412v3.216h1.956v0.96h-1.956v3.564h2.436v0.972h-3.792v-9.72zm8.804 8.808l2.472-3.852c0.12-0.192 0.2-0.312 0.24-0.36 0.28-0.448 0.484-0.82 0.612-1.116s0.192-0.652 0.192-1.068c0-0.464-0.076-0.82-0.228-1.068s-0.4-0.372-0.744-0.372c-0.768 0-1.152 0.596-1.152 1.788v0.324h-1.284v-0.336c0-0.912 0.188-1.612 0.564-2.1s0.98-0.732 1.812-0.732c0.768 0 1.348 0.22 1.74 0.66 0.392 0.432 0.588 1.048 0.588 1.848 0 0.392-0.048 0.744-0.144 1.056-0.088 0.304-0.196 0.568-0.324 0.792s-0.328 0.544-0.6 0.96l-2.232 3.408h3.072v1.08h-4.584v-0.912zm9.067 1.02c-0.8 0-1.404-0.26-1.812-0.78-0.4-0.52-0.6-1.216-0.6-2.088v-4.188c0-0.888 0.196-1.584 0.588-2.088 0.4-0.512 1.008-0.768 1.824-0.768 0.808 0 1.408 0.256 1.8 0.768 0.4 0.504 0.6 1.2 0.6 2.088v4.188c0 0.88-0.2 1.58-0.6 2.1-0.4 0.512-1 0.768-1.8 0.768zm0-1.056c0.736 0 1.104-0.6 1.104-1.8v-4.212c0-0.552-0.08-0.988-0.24-1.308-0.152-0.328-0.44-0.492-0.864-0.492s-0.716 0.164-0.876 0.492c-0.16 0.32-0.24 0.756-0.24 1.308v4.212c0 1.2 0.372 1.8 1.116 1.8zm6.919 1.056c-0.8 0-1.404-0.26-1.812-0.78-0.4-0.52-0.6-1.216-0.6-2.088v-4.188c0-0.888 0.196-1.584 0.588-2.088 0.4-0.512 1.008-0.768 1.824-0.768 0.808 0 1.408 0.256 1.8 0.768 0.4 0.504 0.6 1.2 0.6 2.088v4.188c0 0.88-0.2 1.58-0.6 2.1-0.4 0.512-1 0.768-1.8 0.768zm0-1.056c0.736 0 1.104-0.6 1.104-1.8v-4.212c0-0.552-0.08-0.988-0.24-1.308-0.152-0.328-0.44-0.492-0.864-0.492s-0.716 0.164-0.876 0.492c-0.16 0.32-0.24 0.756-0.24 1.308v4.212c0 1.2 0.372 1.8 1.116 1.8zm6.895 1.056c-0.8 0-1.4-0.292-1.8-0.876-0.392-0.592-0.588-1.364-0.588-2.316v-3.276c0-1.048 0.184-1.884 0.552-2.508s0.98-0.936 1.836-0.936c0.752 0 1.332 0.204 1.74 0.612s0.62 0.992 0.636 1.752l0.012 0.144h-1.296c0-0.496-0.08-0.86-0.24-1.092-0.16-0.24-0.444-0.36-0.852-0.36-0.736 0-1.104 0.692-1.104 2.076v1.476c0.128-0.208 0.312-0.372 0.552-0.492 0.248-0.12 0.536-0.18 0.864-0.18 0.76 0 1.3 0.244 1.62 0.732 0.32 0.48 0.48 1.172 0.48 2.076 0 0.952-0.196 1.72-0.588 2.304-0.392 0.576-1 0.864-1.824 0.864zm0-1.068c0.4 0 0.684-0.164 0.852-0.492 0.176-0.328 0.264-0.76 0.264-1.296 0-0.488-0.02-0.876-0.06-1.164s-0.14-0.524-0.3-0.708-0.412-0.276-0.756-0.276c-0.248 0-0.468 0.064-0.66 0.192-0.184 0.128-0.332 0.284-0.444 0.468v1.452c0 0.552 0.084 0.996 0.252 1.332 0.176 0.328 0.46 0.492 0.852 0.492z" transform="translate(10 17)"/>
</svg>
