<svg width="1112" height="1418" viewBox="0 0 1112 1418" fill="none" xmlns="http://www.w3.org/2000/svg">
<g clip-path="url(#clip0)">
<rect width="1112" height="1418" fill="white"/>
<line y1="-0.25" x2="202.9" y2="-0.25" transform="translate(949.431 390) rotate(90)" stroke="#E0E0E0" stroke-width="0.5"/>
<line y1="-0.25" x2="202.9" y2="-0.25" transform="translate(989.933 390) rotate(90)" stroke="#E0E0E0" stroke-width="0.5"/>
<line y1="-0.25" x2="202.9" y2="-0.25" transform="translate(1030.43 390) rotate(90)" stroke="#E0E0E0" stroke-width="0.5"/>
<line y1="-0.25" x2="202.9" y2="-0.25" transform="translate(1070.94 390) rotate(90)" stroke="#E0E0E0" stroke-width="0.5"/>
<line y1="-0.5" x2="203" y2="-0.5" transform="translate(1111 390) rotate(90)" stroke="#E0E0E0"/>
<line y1="-0.25" x2="202.9" y2="-0.25" transform="translate(929.181 390) rotate(90)" stroke="#E0E0E0" stroke-width="0.5"/>
<line y1="-0.25" x2="202.9" y2="-0.25" transform="translate(969.682 390) rotate(90)" stroke="#E0E0E0" stroke-width="0.5"/>
<line y1="-0.25" x2="202.9" y2="-0.25" transform="translate(1050.69 390) rotate(90)" stroke="#E0E0E0" stroke-width="0.5"/>
<line y1="-0.25" x2="202.9" y2="-0.25" transform="translate(1091.19 390) rotate(90)" stroke="#E0E0E0" stroke-width="0.5"/>
<line y1="-0.5" x2="202.508" y2="-0.5" transform="translate(1111.44 390) rotate(180)" stroke="#E0E0E0"/>
<line y1="-0.25" x2="202.508" y2="-0.25" transform="translate(1111.44 430.58) rotate(180)" stroke="#E0E0E0" stroke-width="0.5"/>
<line y1="-0.25" x2="202.508" y2="-0.25" transform="translate(1111.44 471.16) rotate(180)" stroke="#E0E0E0" stroke-width="0.5"/>
<line y1="-0.25" x2="202.508" y2="-0.25" transform="translate(1111.44 511.74) rotate(180)" stroke="#E0E0E0" stroke-width="0.5"/>
<line y1="-0.25" x2="202.508" y2="-0.25" transform="translate(1111.44 552.32) rotate(180)" stroke="#E0E0E0" stroke-width="0.5"/>
<line y1="-0.5" x2="203" y2="-0.5" transform="translate(1112 593) rotate(180)" stroke="#E0E0E0"/>
<line y1="-0.25" x2="202.508" y2="-0.25" transform="translate(1111.44 410.29) rotate(180)" stroke="#E0E0E0" stroke-width="0.5"/>
<line y1="-0.25" x2="202.508" y2="-0.25" transform="translate(1111.44 450.87) rotate(180)" stroke="#E0E0E0" stroke-width="0.5"/>
<line y1="-0.5" x2="202.508" y2="-0.5" transform="translate(1111.44 491.45) rotate(180)" stroke="#E0E0E0"/>
<line y1="-0.25" x2="202.508" y2="-0.25" transform="translate(1111.44 532.03) rotate(180)" stroke="#E0E0E0" stroke-width="0.5"/>
<line y1="-0.25" x2="202.508" y2="-0.25" transform="translate(1111.44 572.61) rotate(180)" stroke="#E0E0E0" stroke-width="0.5"/>
<line y1="-0.5" x2="202.9" y2="-0.5" transform="translate(1010.18 390) rotate(90)" stroke="#E0E0E0"/>
<line y1="-0.5" x2="202.9" y2="-0.5" transform="translate(908.93 390) rotate(90)" stroke="#E0E0E0"/>
<line y1="-0.25" x2="202.9" y2="-0.25" transform="translate(747.501 390) rotate(90)" stroke="#E0E0E0" stroke-width="0.5"/>
<line y1="-0.25" x2="202.9" y2="-0.25" transform="translate(788.003 390) rotate(90)" stroke="#E0E0E0" stroke-width="0.5"/>
<line y1="-0.25" x2="202.9" y2="-0.25" transform="translate(828.504 390) rotate(90)" stroke="#E0E0E0" stroke-width="0.5"/>
<line y1="-0.25" x2="202.9" y2="-0.25" transform="translate(869.006 390) rotate(90)" stroke="#E0E0E0" stroke-width="0.5"/>
<line y1="-0.5" x2="203" y2="-0.5" transform="translate(909.07 390) rotate(90)" stroke="#E0E0E0"/>
<line y1="-0.25" x2="202.9" y2="-0.25" transform="translate(727.251 390) rotate(90)" stroke="#E0E0E0" stroke-width="0.5"/>
<line y1="-0.25" x2="202.9" y2="-0.25" transform="translate(767.752 390) rotate(90)" stroke="#E0E0E0" stroke-width="0.5"/>
<line y1="-0.25" x2="202.9" y2="-0.25" transform="translate(848.755 390) rotate(90)" stroke="#E0E0E0" stroke-width="0.5"/>
<line y1="-0.25" x2="202.9" y2="-0.25" transform="translate(889.257 390) rotate(90)" stroke="#E0E0E0" stroke-width="0.5"/>
<line y1="-0.5" x2="202.508" y2="-0.5" transform="translate(909.508 390) rotate(180)" stroke="#E0E0E0"/>
<line y1="-0.25" x2="202.508" y2="-0.25" transform="translate(909.508 430.58) rotate(180)" stroke="#E0E0E0" stroke-width="0.5"/>
<line y1="-0.25" x2="202.508" y2="-0.25" transform="translate(909.508 471.16) rotate(180)" stroke="#E0E0E0" stroke-width="0.5"/>
<line y1="-0.25" x2="202.508" y2="-0.25" transform="translate(909.508 511.74) rotate(180)" stroke="#E0E0E0" stroke-width="0.5"/>
<line y1="-0.25" x2="202.508" y2="-0.25" transform="translate(909.508 552.32) rotate(180)" stroke="#E0E0E0" stroke-width="0.5"/>
<line y1="-0.5" x2="203" y2="-0.5" transform="translate(910.07 593) rotate(180)" stroke="#E0E0E0"/>
<line y1="-0.25" x2="202.508" y2="-0.25" transform="translate(909.508 410.29) rotate(180)" stroke="#E0E0E0" stroke-width="0.5"/>
<line y1="-0.25" x2="202.508" y2="-0.25" transform="translate(909.508 450.87) rotate(180)" stroke="#E0E0E0" stroke-width="0.5"/>
<line y1="-0.5" x2="202.508" y2="-0.5" transform="translate(909.508 491.45) rotate(180)" stroke="#E0E0E0"/>
<line y1="-0.25" x2="202.508" y2="-0.25" transform="translate(909.508 532.03) rotate(180)" stroke="#E0E0E0" stroke-width="0.5"/>
<line y1="-0.25" x2="202.508" y2="-0.25" transform="translate(909.508 572.61) rotate(180)" stroke="#E0E0E0" stroke-width="0.5"/>
<line y1="-0.5" x2="202.9" y2="-0.5" transform="translate(808.254 390) rotate(90)" stroke="#E0E0E0"/>
<line y1="-0.5" x2="202.9" y2="-0.5" transform="translate(707 390) rotate(90)" stroke="#E0E0E0"/>
<line y1="-0.25" x2="202.9" y2="-0.25" transform="translate(545.431 390) rotate(90)" stroke="#E0E0E0" stroke-width="0.5"/>
<line y1="-0.25" x2="202.9" y2="-0.25" transform="translate(585.933 390) rotate(90)" stroke="#E0E0E0" stroke-width="0.5"/>
<line y1="-0.25" x2="202.9" y2="-0.25" transform="translate(626.434 390) rotate(90)" stroke="#E0E0E0" stroke-width="0.5"/>
<line y1="-0.25" x2="202.9" y2="-0.25" transform="translate(666.936 390) rotate(90)" stroke="#E0E0E0" stroke-width="0.5"/>
<line y1="-0.5" x2="203" y2="-0.5" transform="translate(707 390) rotate(90)" stroke="#E0E0E0"/>
<line y1="-0.25" x2="202.9" y2="-0.25" transform="translate(525.181 390) rotate(90)" stroke="#E0E0E0" stroke-width="0.5"/>
<line y1="-0.25" x2="202.9" y2="-0.25" transform="translate(565.682 390) rotate(90)" stroke="#E0E0E0" stroke-width="0.5"/>
<line y1="-0.25" x2="202.9" y2="-0.25" transform="translate(646.685 390) rotate(90)" stroke="#E0E0E0" stroke-width="0.5"/>
<line y1="-0.25" x2="202.9" y2="-0.25" transform="translate(687.187 390) rotate(90)" stroke="#E0E0E0" stroke-width="0.5"/>
<line y1="-0.5" x2="202.508" y2="-0.5" transform="translate(707.438 390) rotate(180)" stroke="#E0E0E0"/>
<line y1="-0.25" x2="202.508" y2="-0.25" transform="translate(707.438 430.58) rotate(180)" stroke="#E0E0E0" stroke-width="0.5"/>
<line y1="-0.25" x2="202.508" y2="-0.25" transform="translate(707.438 471.16) rotate(180)" stroke="#E0E0E0" stroke-width="0.5"/>
<line y1="-0.25" x2="202.508" y2="-0.25" transform="translate(707.438 511.74) rotate(180)" stroke="#E0E0E0" stroke-width="0.5"/>
<line y1="-0.25" x2="202.508" y2="-0.25" transform="translate(707.438 552.32) rotate(180)" stroke="#E0E0E0" stroke-width="0.5"/>
<line y1="-0.5" x2="203" y2="-0.5" transform="translate(708 593) rotate(180)" stroke="#E0E0E0"/>
<line y1="-0.25" x2="202.508" y2="-0.25" transform="translate(707.438 410.29) rotate(180)" stroke="#E0E0E0" stroke-width="0.5"/>
<line y1="-0.25" x2="202.508" y2="-0.25" transform="translate(707.438 450.87) rotate(180)" stroke="#E0E0E0" stroke-width="0.5"/>
<line y1="-0.5" x2="202.508" y2="-0.5" transform="translate(707.438 491.45) rotate(180)" stroke="#E0E0E0"/>
<line y1="-0.25" x2="202.508" y2="-0.25" transform="translate(707.438 532.03) rotate(180)" stroke="#E0E0E0" stroke-width="0.5"/>
<line y1="-0.25" x2="202.508" y2="-0.25" transform="translate(707.438 572.61) rotate(180)" stroke="#E0E0E0" stroke-width="0.5"/>
<line y1="-0.5" x2="202.9" y2="-0.5" transform="translate(606.184 390) rotate(90)" stroke="#E0E0E0"/>
<line y1="-0.5" x2="202.9" y2="-0.5" transform="translate(504.93 390) rotate(90)" stroke="#E0E0E0"/>
<line y1="-0.25" x2="202.9" y2="-0.25" transform="translate(343.501 390) rotate(90)" stroke="#E0E0E0" stroke-width="0.5"/>
<line y1="-0.25" x2="202.9" y2="-0.25" transform="translate(384.003 390) rotate(90)" stroke="#E0E0E0" stroke-width="0.5"/>
<line y1="-0.25" x2="202.9" y2="-0.25" transform="translate(424.504 390) rotate(90)" stroke="#E0E0E0" stroke-width="0.5"/>
<line y1="-0.25" x2="202.9" y2="-0.25" transform="translate(465.006 390) rotate(90)" stroke="#E0E0E0" stroke-width="0.5"/>
<line y1="-0.5" x2="203" y2="-0.5" transform="translate(505.07 390) rotate(90)" stroke="#E0E0E0"/>
<line y1="-0.25" x2="202.9" y2="-0.25" transform="translate(323.251 390) rotate(90)" stroke="#E0E0E0" stroke-width="0.5"/>
<line y1="-0.25" x2="202.9" y2="-0.25" transform="translate(363.752 390) rotate(90)" stroke="#E0E0E0" stroke-width="0.5"/>
<line y1="-0.25" x2="202.9" y2="-0.25" transform="translate(444.755 390) rotate(90)" stroke="#E0E0E0" stroke-width="0.5"/>
<line y1="-0.25" x2="202.9" y2="-0.25" transform="translate(485.257 390) rotate(90)" stroke="#E0E0E0" stroke-width="0.5"/>
<line y1="-0.5" x2="202.508" y2="-0.5" transform="translate(505.508 390) rotate(180)" stroke="#E0E0E0"/>
<line y1="-0.25" x2="202.508" y2="-0.25" transform="translate(505.508 430.58) rotate(180)" stroke="#E0E0E0" stroke-width="0.5"/>
<line y1="-0.25" x2="202.508" y2="-0.25" transform="translate(505.508 471.16) rotate(180)" stroke="#E0E0E0" stroke-width="0.5"/>
<line y1="-0.25" x2="202.508" y2="-0.25" transform="translate(505.508 511.74) rotate(180)" stroke="#E0E0E0" stroke-width="0.5"/>
<line y1="-0.25" x2="202.508" y2="-0.25" transform="translate(505.508 552.32) rotate(180)" stroke="#E0E0E0" stroke-width="0.5"/>
<line y1="-0.5" x2="203" y2="-0.5" transform="translate(506.07 593) rotate(180)" stroke="#E0E0E0"/>
<line y1="-0.25" x2="202.508" y2="-0.25" transform="translate(505.508 410.29) rotate(180)" stroke="#E0E0E0" stroke-width="0.5"/>
<line y1="-0.25" x2="202.508" y2="-0.25" transform="translate(505.508 450.87) rotate(180)" stroke="#E0E0E0" stroke-width="0.5"/>
<line y1="-0.5" x2="202.508" y2="-0.5" transform="translate(505.508 491.45) rotate(180)" stroke="#E0E0E0"/>
<line y1="-0.25" x2="202.508" y2="-0.25" transform="translate(505.508 532.03) rotate(180)" stroke="#E0E0E0" stroke-width="0.5"/>
<line y1="-0.25" x2="202.508" y2="-0.25" transform="translate(505.508 572.61) rotate(180)" stroke="#E0E0E0" stroke-width="0.5"/>
<line y1="-0.5" x2="202.9" y2="-0.5" transform="translate(404.254 390) rotate(90)" stroke="#E0E0E0"/>
<line y1="-0.5" x2="202.9" y2="-0.5" transform="translate(303 390) rotate(90)" stroke="#E0E0E0"/>
<line y1="-0.25" x2="202.9" y2="-0.25" transform="translate(949.431 593) rotate(90)" stroke="#E0E0E0" stroke-width="0.5"/>
<line y1="-0.25" x2="202.9" y2="-0.25" transform="translate(989.933 593) rotate(90)" stroke="#E0E0E0" stroke-width="0.5"/>
<line y1="-0.25" x2="202.9" y2="-0.25" transform="translate(1030.43 593) rotate(90)" stroke="#E0E0E0" stroke-width="0.5"/>
<line y1="-0.25" x2="202.9" y2="-0.25" transform="translate(1070.94 593) rotate(90)" stroke="#E0E0E0" stroke-width="0.5"/>
<line y1="-0.5" x2="203" y2="-0.5" transform="translate(1111 593) rotate(90)" stroke="#E0E0E0"/>
<line y1="-0.25" x2="202.9" y2="-0.25" transform="translate(929.181 593) rotate(90)" stroke="#E0E0E0" stroke-width="0.5"/>
<line y1="-0.25" x2="202.9" y2="-0.25" transform="translate(969.682 593) rotate(90)" stroke="#E0E0E0" stroke-width="0.5"/>
<line y1="-0.25" x2="202.9" y2="-0.25" transform="translate(1050.69 593) rotate(90)" stroke="#E0E0E0" stroke-width="0.5"/>
<line y1="-0.25" x2="202.9" y2="-0.25" transform="translate(1091.19 593) rotate(90)" stroke="#E0E0E0" stroke-width="0.5"/>
<line y1="-0.5" x2="202.508" y2="-0.5" transform="translate(1111.44 593) rotate(180)" stroke="#E0E0E0"/>
<line y1="-0.25" x2="202.508" y2="-0.25" transform="translate(1111.44 633.58) rotate(180)" stroke="#E0E0E0" stroke-width="0.5"/>
<line y1="-0.25" x2="202.508" y2="-0.25" transform="translate(1111.44 674.16) rotate(180)" stroke="#E0E0E0" stroke-width="0.5"/>
<line y1="-0.25" x2="202.508" y2="-0.25" transform="translate(1111.44 714.74) rotate(180)" stroke="#E0E0E0" stroke-width="0.5"/>
<line y1="-0.25" x2="202.508" y2="-0.25" transform="translate(1111.44 755.32) rotate(180)" stroke="#E0E0E0" stroke-width="0.5"/>
<line y1="-0.5" x2="203" y2="-0.5" transform="translate(1112 796) rotate(180)" stroke="#E0E0E0"/>
<line y1="-0.25" x2="202.508" y2="-0.25" transform="translate(1111.44 613.29) rotate(180)" stroke="#E0E0E0" stroke-width="0.5"/>
<line y1="-0.25" x2="202.508" y2="-0.25" transform="translate(1111.44 653.87) rotate(180)" stroke="#E0E0E0" stroke-width="0.5"/>
<line y1="-0.5" x2="202.508" y2="-0.5" transform="translate(1111.44 694.45) rotate(180)" stroke="#E0E0E0"/>
<line y1="-0.25" x2="202.508" y2="-0.25" transform="translate(1111.44 735.03) rotate(180)" stroke="#E0E0E0" stroke-width="0.5"/>
<line y1="-0.25" x2="202.508" y2="-0.25" transform="translate(1111.44 775.61) rotate(180)" stroke="#E0E0E0" stroke-width="0.5"/>
<line y1="-0.5" x2="202.9" y2="-0.5" transform="translate(1010.18 593) rotate(90)" stroke="#E0E0E0"/>
<line y1="-0.5" x2="202.9" y2="-0.5" transform="translate(908.93 593) rotate(90)" stroke="#E0E0E0"/>
<line y1="-0.25" x2="202.9" y2="-0.25" transform="translate(747.501 593) rotate(90)" stroke="#E0E0E0" stroke-width="0.5"/>
<line y1="-0.25" x2="202.9" y2="-0.25" transform="translate(788.003 593) rotate(90)" stroke="#E0E0E0" stroke-width="0.5"/>
<line y1="-0.25" x2="202.9" y2="-0.25" transform="translate(828.504 593) rotate(90)" stroke="#E0E0E0" stroke-width="0.5"/>
<line y1="-0.25" x2="202.9" y2="-0.25" transform="translate(869.006 593) rotate(90)" stroke="#E0E0E0" stroke-width="0.5"/>
<line y1="-0.5" x2="203" y2="-0.5" transform="translate(909.07 593) rotate(90)" stroke="#E0E0E0"/>
<line y1="-0.25" x2="202.9" y2="-0.25" transform="translate(727.251 593) rotate(90)" stroke="#E0E0E0" stroke-width="0.5"/>
<line y1="-0.25" x2="202.9" y2="-0.25" transform="translate(767.752 593) rotate(90)" stroke="#E0E0E0" stroke-width="0.5"/>
<line y1="-0.25" x2="202.9" y2="-0.25" transform="translate(848.755 593) rotate(90)" stroke="#E0E0E0" stroke-width="0.5"/>
<line y1="-0.25" x2="202.9" y2="-0.25" transform="translate(889.257 593) rotate(90)" stroke="#E0E0E0" stroke-width="0.5"/>
<line y1="-0.5" x2="202.508" y2="-0.5" transform="translate(909.508 593) rotate(180)" stroke="#E0E0E0"/>
<line y1="-0.25" x2="202.508" y2="-0.25" transform="translate(909.508 633.58) rotate(180)" stroke="#E0E0E0" stroke-width="0.5"/>
<line y1="-0.25" x2="202.508" y2="-0.25" transform="translate(909.508 674.16) rotate(180)" stroke="#E0E0E0" stroke-width="0.5"/>
<line y1="-0.25" x2="202.508" y2="-0.25" transform="translate(909.508 714.74) rotate(180)" stroke="#E0E0E0" stroke-width="0.5"/>
<line y1="-0.25" x2="202.508" y2="-0.25" transform="translate(909.508 755.32) rotate(180)" stroke="#E0E0E0" stroke-width="0.5"/>
<line y1="-0.5" x2="203" y2="-0.5" transform="translate(910.07 796) rotate(180)" stroke="#E0E0E0"/>
<line y1="-0.25" x2="202.508" y2="-0.25" transform="translate(909.508 613.29) rotate(180)" stroke="#E0E0E0" stroke-width="0.5"/>
<line y1="-0.25" x2="202.508" y2="-0.25" transform="translate(909.508 653.87) rotate(180)" stroke="#E0E0E0" stroke-width="0.5"/>
<line y1="-0.5" x2="202.508" y2="-0.5" transform="translate(909.508 694.45) rotate(180)" stroke="#E0E0E0"/>
<line y1="-0.25" x2="202.508" y2="-0.25" transform="translate(909.508 735.03) rotate(180)" stroke="#E0E0E0" stroke-width="0.5"/>
<line y1="-0.25" x2="202.508" y2="-0.25" transform="translate(909.508 775.61) rotate(180)" stroke="#E0E0E0" stroke-width="0.5"/>
<line y1="-0.5" x2="202.9" y2="-0.5" transform="translate(808.254 593) rotate(90)" stroke="#E0E0E0"/>
<line y1="-0.5" x2="202.9" y2="-0.5" transform="translate(707 593) rotate(90)" stroke="#E0E0E0"/>
<line y1="-0.25" x2="202.9" y2="-0.25" transform="translate(545.431 593) rotate(90)" stroke="#E0E0E0" stroke-width="0.5"/>
<line y1="-0.25" x2="202.9" y2="-0.25" transform="translate(585.933 593) rotate(90)" stroke="#E0E0E0" stroke-width="0.5"/>
<line y1="-0.25" x2="202.9" y2="-0.25" transform="translate(626.434 593) rotate(90)" stroke="#E0E0E0" stroke-width="0.5"/>
<line y1="-0.25" x2="202.9" y2="-0.25" transform="translate(666.936 593) rotate(90)" stroke="#E0E0E0" stroke-width="0.5"/>
<line y1="-0.5" x2="203" y2="-0.5" transform="translate(707 593) rotate(90)" stroke="#E0E0E0"/>
<line y1="-0.25" x2="202.9" y2="-0.25" transform="translate(525.181 593) rotate(90)" stroke="#E0E0E0" stroke-width="0.5"/>
<line y1="-0.25" x2="202.9" y2="-0.25" transform="translate(565.682 593) rotate(90)" stroke="#E0E0E0" stroke-width="0.5"/>
<line y1="-0.25" x2="202.9" y2="-0.25" transform="translate(646.685 593) rotate(90)" stroke="#E0E0E0" stroke-width="0.5"/>
<line y1="-0.25" x2="202.9" y2="-0.25" transform="translate(687.187 593) rotate(90)" stroke="#E0E0E0" stroke-width="0.5"/>
<line y1="-0.5" x2="202.508" y2="-0.5" transform="translate(707.438 593) rotate(180)" stroke="#E0E0E0"/>
<line y1="-0.25" x2="202.508" y2="-0.25" transform="translate(707.438 633.58) rotate(180)" stroke="#E0E0E0" stroke-width="0.5"/>
<line y1="-0.25" x2="202.508" y2="-0.25" transform="translate(707.438 674.16) rotate(180)" stroke="#E0E0E0" stroke-width="0.5"/>
<line y1="-0.25" x2="202.508" y2="-0.25" transform="translate(707.438 714.74) rotate(180)" stroke="#E0E0E0" stroke-width="0.5"/>
<line y1="-0.25" x2="202.508" y2="-0.25" transform="translate(707.438 755.32) rotate(180)" stroke="#E0E0E0" stroke-width="0.5"/>
<line y1="-0.5" x2="203" y2="-0.5" transform="translate(708 796) rotate(180)" stroke="#E0E0E0"/>
<line y1="-0.25" x2="202.508" y2="-0.25" transform="translate(707.438 613.29) rotate(180)" stroke="#E0E0E0" stroke-width="0.5"/>
<line y1="-0.25" x2="202.508" y2="-0.25" transform="translate(707.438 653.87) rotate(180)" stroke="#E0E0E0" stroke-width="0.5"/>
<line y1="-0.5" x2="202.508" y2="-0.5" transform="translate(707.438 694.45) rotate(180)" stroke="#E0E0E0"/>
<line y1="-0.25" x2="202.508" y2="-0.25" transform="translate(707.438 735.03) rotate(180)" stroke="#E0E0E0" stroke-width="0.5"/>
<line y1="-0.25" x2="202.508" y2="-0.25" transform="translate(707.438 775.61) rotate(180)" stroke="#E0E0E0" stroke-width="0.5"/>
<line y1="-0.5" x2="202.9" y2="-0.5" transform="translate(606.184 593) rotate(90)" stroke="#E0E0E0"/>
<line y1="-0.5" x2="202.9" y2="-0.5" transform="translate(504.93 593) rotate(90)" stroke="#E0E0E0"/>
<line y1="-0.25" x2="202.9" y2="-0.25" transform="translate(343.501 593) rotate(90)" stroke="#E0E0E0" stroke-width="0.5"/>
<line y1="-0.25" x2="202.9" y2="-0.25" transform="translate(384.003 593) rotate(90)" stroke="#E0E0E0" stroke-width="0.5"/>
<line y1="-0.25" x2="202.9" y2="-0.25" transform="translate(424.504 593) rotate(90)" stroke="#E0E0E0" stroke-width="0.5"/>
<line y1="-0.25" x2="202.9" y2="-0.25" transform="translate(465.006 593) rotate(90)" stroke="#E0E0E0" stroke-width="0.5"/>
<line y1="-0.5" x2="203" y2="-0.5" transform="translate(505.07 593) rotate(90)" stroke="#E0E0E0"/>
<line y1="-0.25" x2="202.9" y2="-0.25" transform="translate(323.251 593) rotate(90)" stroke="#E0E0E0" stroke-width="0.5"/>
<line y1="-0.25" x2="202.9" y2="-0.25" transform="translate(363.752 593) rotate(90)" stroke="#E0E0E0" stroke-width="0.5"/>
<line y1="-0.25" x2="202.9" y2="-0.25" transform="translate(444.755 593) rotate(90)" stroke="#E0E0E0" stroke-width="0.5"/>
<line y1="-0.25" x2="202.9" y2="-0.25" transform="translate(485.257 593) rotate(90)" stroke="#E0E0E0" stroke-width="0.5"/>
<line y1="-0.5" x2="202.508" y2="-0.5" transform="translate(505.508 593) rotate(180)" stroke="#E0E0E0"/>
<line y1="-0.25" x2="202.508" y2="-0.25" transform="translate(505.508 633.58) rotate(180)" stroke="#E0E0E0" stroke-width="0.5"/>
<line y1="-0.25" x2="202.508" y2="-0.25" transform="translate(505.508 674.16) rotate(180)" stroke="#E0E0E0" stroke-width="0.5"/>
<line y1="-0.25" x2="202.508" y2="-0.25" transform="translate(505.508 714.74) rotate(180)" stroke="#E0E0E0" stroke-width="0.5"/>
<line y1="-0.25" x2="202.508" y2="-0.25" transform="translate(505.508 755.32) rotate(180)" stroke="#E0E0E0" stroke-width="0.5"/>
<line y1="-0.5" x2="203" y2="-0.5" transform="translate(506.07 796) rotate(180)" stroke="#E0E0E0"/>
<line y1="-0.25" x2="202.508" y2="-0.25" transform="translate(505.508 613.29) rotate(180)" stroke="#E0E0E0" stroke-width="0.5"/>
<line y1="-0.25" x2="202.508" y2="-0.25" transform="translate(505.508 653.87) rotate(180)" stroke="#E0E0E0" stroke-width="0.5"/>
<line y1="-0.5" x2="202.508" y2="-0.5" transform="translate(505.508 694.45) rotate(180)" stroke="#E0E0E0"/>
<line y1="-0.25" x2="202.508" y2="-0.25" transform="translate(505.508 735.03) rotate(180)" stroke="#E0E0E0" stroke-width="0.5"/>
<line y1="-0.25" x2="202.508" y2="-0.25" transform="translate(505.508 775.61) rotate(180)" stroke="#E0E0E0" stroke-width="0.5"/>
<line y1="-0.5" x2="202.9" y2="-0.5" transform="translate(404.254 593) rotate(90)" stroke="#E0E0E0"/>
<line y1="-0.5" x2="202.9" y2="-0.5" transform="translate(303 593) rotate(90)" stroke="#E0E0E0"/>
<line y1="-0.25" x2="202.9" y2="-0.25" transform="translate(949.431 796) rotate(90)" stroke="#E0E0E0" stroke-width="0.5"/>
<line y1="-0.25" x2="202.9" y2="-0.25" transform="translate(989.933 796) rotate(90)" stroke="#E0E0E0" stroke-width="0.5"/>
<line y1="-0.25" x2="202.9" y2="-0.25" transform="translate(1030.43 796) rotate(90)" stroke="#E0E0E0" stroke-width="0.5"/>
<line y1="-0.25" x2="202.9" y2="-0.25" transform="translate(1070.94 796) rotate(90)" stroke="#E0E0E0" stroke-width="0.5"/>
<line y1="-0.5" x2="203" y2="-0.5" transform="translate(1111 796) rotate(90)" stroke="#E0E0E0"/>
<line y1="-0.25" x2="202.9" y2="-0.25" transform="translate(929.181 796) rotate(90)" stroke="#E0E0E0" stroke-width="0.5"/>
<line y1="-0.25" x2="202.9" y2="-0.25" transform="translate(969.682 796) rotate(90)" stroke="#E0E0E0" stroke-width="0.5"/>
<line y1="-0.25" x2="202.9" y2="-0.25" transform="translate(1050.69 796) rotate(90)" stroke="#E0E0E0" stroke-width="0.5"/>
<line y1="-0.25" x2="202.9" y2="-0.25" transform="translate(1091.19 796) rotate(90)" stroke="#E0E0E0" stroke-width="0.5"/>
<line y1="-0.5" x2="202.508" y2="-0.5" transform="translate(1111.44 796) rotate(180)" stroke="#E0E0E0"/>
<line y1="-0.25" x2="202.508" y2="-0.25" transform="translate(1111.44 836.58) rotate(180)" stroke="#E0E0E0" stroke-width="0.5"/>
<line y1="-0.25" x2="202.508" y2="-0.25" transform="translate(1111.44 877.16) rotate(180)" stroke="#E0E0E0" stroke-width="0.5"/>
<line y1="-0.25" x2="202.508" y2="-0.25" transform="translate(1111.44 917.74) rotate(180)" stroke="#E0E0E0" stroke-width="0.5"/>
<line y1="-0.25" x2="202.508" y2="-0.25" transform="translate(1111.44 958.32) rotate(180)" stroke="#E0E0E0" stroke-width="0.5"/>
<line y1="-0.5" x2="203" y2="-0.5" transform="translate(1112 999) rotate(180)" stroke="#E0E0E0"/>
<line y1="-0.25" x2="202.508" y2="-0.25" transform="translate(1111.44 816.29) rotate(180)" stroke="#E0E0E0" stroke-width="0.5"/>
<line y1="-0.25" x2="202.508" y2="-0.25" transform="translate(1111.44 856.87) rotate(180)" stroke="#E0E0E0" stroke-width="0.5"/>
<line y1="-0.5" x2="202.508" y2="-0.5" transform="translate(1111.44 897.45) rotate(180)" stroke="#E0E0E0"/>
<line y1="-0.25" x2="202.508" y2="-0.25" transform="translate(1111.44 938.03) rotate(180)" stroke="#E0E0E0" stroke-width="0.5"/>
<line y1="-0.25" x2="202.508" y2="-0.25" transform="translate(1111.44 978.61) rotate(180)" stroke="#E0E0E0" stroke-width="0.5"/>
<line y1="-0.5" x2="202.9" y2="-0.5" transform="translate(1010.18 796) rotate(90)" stroke="#E0E0E0"/>
<line y1="-0.5" x2="202.9" y2="-0.5" transform="translate(908.93 796) rotate(90)" stroke="#E0E0E0"/>
<line y1="-0.25" x2="202.9" y2="-0.25" transform="translate(747.501 796) rotate(90)" stroke="#E0E0E0" stroke-width="0.5"/>
<line y1="-0.25" x2="202.9" y2="-0.25" transform="translate(788.003 796) rotate(90)" stroke="#E0E0E0" stroke-width="0.5"/>
<line y1="-0.25" x2="202.9" y2="-0.25" transform="translate(828.504 796) rotate(90)" stroke="#E0E0E0" stroke-width="0.5"/>
<line y1="-0.25" x2="202.9" y2="-0.25" transform="translate(869.006 796) rotate(90)" stroke="#E0E0E0" stroke-width="0.5"/>
<line y1="-0.5" x2="203" y2="-0.5" transform="translate(909.07 796) rotate(90)" stroke="#E0E0E0"/>
<line y1="-0.25" x2="202.9" y2="-0.25" transform="translate(727.251 796) rotate(90)" stroke="#E0E0E0" stroke-width="0.5"/>
<line y1="-0.25" x2="202.9" y2="-0.25" transform="translate(767.752 796) rotate(90)" stroke="#E0E0E0" stroke-width="0.5"/>
<line y1="-0.25" x2="202.9" y2="-0.25" transform="translate(848.755 796) rotate(90)" stroke="#E0E0E0" stroke-width="0.5"/>
<line y1="-0.25" x2="202.9" y2="-0.25" transform="translate(889.257 796) rotate(90)" stroke="#E0E0E0" stroke-width="0.5"/>
<line y1="-0.5" x2="202.508" y2="-0.5" transform="translate(909.508 796) rotate(180)" stroke="#E0E0E0"/>
<line y1="-0.25" x2="202.508" y2="-0.25" transform="translate(909.508 836.58) rotate(180)" stroke="#E0E0E0" stroke-width="0.5"/>
<line y1="-0.25" x2="202.508" y2="-0.25" transform="translate(909.508 877.16) rotate(180)" stroke="#E0E0E0" stroke-width="0.5"/>
<line y1="-0.25" x2="202.508" y2="-0.25" transform="translate(909.508 917.74) rotate(180)" stroke="#E0E0E0" stroke-width="0.5"/>
<line y1="-0.25" x2="202.508" y2="-0.25" transform="translate(909.508 958.32) rotate(180)" stroke="#E0E0E0" stroke-width="0.5"/>
<line y1="-0.5" x2="203" y2="-0.5" transform="translate(910.07 999) rotate(180)" stroke="#E0E0E0"/>
<line y1="-0.25" x2="202.508" y2="-0.25" transform="translate(909.508 816.29) rotate(180)" stroke="#E0E0E0" stroke-width="0.5"/>
<line y1="-0.25" x2="202.508" y2="-0.25" transform="translate(909.508 856.87) rotate(180)" stroke="#E0E0E0" stroke-width="0.5"/>
<line y1="-0.5" x2="202.508" y2="-0.5" transform="translate(909.508 897.45) rotate(180)" stroke="#E0E0E0"/>
<line y1="-0.25" x2="202.508" y2="-0.25" transform="translate(909.508 938.03) rotate(180)" stroke="#E0E0E0" stroke-width="0.5"/>
<line y1="-0.25" x2="202.508" y2="-0.25" transform="translate(909.508 978.61) rotate(180)" stroke="#E0E0E0" stroke-width="0.5"/>
<line y1="-0.5" x2="202.9" y2="-0.5" transform="translate(808.254 796) rotate(90)" stroke="#E0E0E0"/>
<line y1="-0.5" x2="202.9" y2="-0.5" transform="translate(707 796) rotate(90)" stroke="#E0E0E0"/>
<line y1="-0.25" x2="202.9" y2="-0.25" transform="translate(545.431 796) rotate(90)" stroke="#E0E0E0" stroke-width="0.5"/>
<line y1="-0.25" x2="202.9" y2="-0.25" transform="translate(585.933 796) rotate(90)" stroke="#E0E0E0" stroke-width="0.5"/>
<line y1="-0.25" x2="202.9" y2="-0.25" transform="translate(626.434 796) rotate(90)" stroke="#E0E0E0" stroke-width="0.5"/>
<line y1="-0.25" x2="202.9" y2="-0.25" transform="translate(666.936 796) rotate(90)" stroke="#E0E0E0" stroke-width="0.5"/>
<line y1="-0.5" x2="203" y2="-0.5" transform="translate(707 796) rotate(90)" stroke="#E0E0E0"/>
<line y1="-0.25" x2="202.9" y2="-0.25" transform="translate(525.181 796) rotate(90)" stroke="#E0E0E0" stroke-width="0.5"/>
<line y1="-0.25" x2="202.9" y2="-0.25" transform="translate(565.682 796) rotate(90)" stroke="#E0E0E0" stroke-width="0.5"/>
<line y1="-0.25" x2="202.9" y2="-0.25" transform="translate(646.685 796) rotate(90)" stroke="#E0E0E0" stroke-width="0.5"/>
<line y1="-0.25" x2="202.9" y2="-0.25" transform="translate(687.187 796) rotate(90)" stroke="#E0E0E0" stroke-width="0.5"/>
<line y1="-0.5" x2="202.508" y2="-0.5" transform="translate(707.438 796) rotate(180)" stroke="#E0E0E0"/>
<line y1="-0.25" x2="202.508" y2="-0.25" transform="translate(707.438 836.58) rotate(180)" stroke="#E0E0E0" stroke-width="0.5"/>
<line y1="-0.25" x2="202.508" y2="-0.25" transform="translate(707.438 877.16) rotate(180)" stroke="#E0E0E0" stroke-width="0.5"/>
<line y1="-0.25" x2="202.508" y2="-0.25" transform="translate(707.438 917.74) rotate(180)" stroke="#E0E0E0" stroke-width="0.5"/>
<line y1="-0.25" x2="202.508" y2="-0.25" transform="translate(707.438 958.32) rotate(180)" stroke="#E0E0E0" stroke-width="0.5"/>
<line y1="-0.5" x2="203" y2="-0.5" transform="translate(708 999) rotate(180)" stroke="#E0E0E0"/>
<line y1="-0.25" x2="202.508" y2="-0.25" transform="translate(707.438 816.29) rotate(180)" stroke="#E0E0E0" stroke-width="0.5"/>
<line y1="-0.25" x2="202.508" y2="-0.25" transform="translate(707.438 856.87) rotate(180)" stroke="#E0E0E0" stroke-width="0.5"/>
<line y1="-0.5" x2="202.508" y2="-0.5" transform="translate(707.438 897.45) rotate(180)" stroke="#E0E0E0"/>
<line y1="-0.25" x2="202.508" y2="-0.25" transform="translate(707.438 938.03) rotate(180)" stroke="#E0E0E0" stroke-width="0.5"/>
<line y1="-0.25" x2="202.508" y2="-0.25" transform="translate(707.438 978.61) rotate(180)" stroke="#E0E0E0" stroke-width="0.5"/>
<line y1="-0.5" x2="202.9" y2="-0.5" transform="translate(606.184 796) rotate(90)" stroke="#E0E0E0"/>
<line y1="-0.5" x2="202.9" y2="-0.5" transform="translate(504.93 796) rotate(90)" stroke="#E0E0E0"/>
<line y1="-0.25" x2="202.9" y2="-0.25" transform="translate(343.501 796) rotate(90)" stroke="#E0E0E0" stroke-width="0.5"/>
<line y1="-0.25" x2="202.9" y2="-0.25" transform="translate(384.003 796) rotate(90)" stroke="#E0E0E0" stroke-width="0.5"/>
<line y1="-0.25" x2="202.9" y2="-0.25" transform="translate(424.504 796) rotate(90)" stroke="#E0E0E0" stroke-width="0.5"/>
<line y1="-0.25" x2="202.9" y2="-0.25" transform="translate(465.006 796) rotate(90)" stroke="#E0E0E0" stroke-width="0.5"/>
<line y1="-0.5" x2="203" y2="-0.5" transform="translate(505.07 796) rotate(90)" stroke="#E0E0E0"/>
<line y1="-0.25" x2="202.9" y2="-0.25" transform="translate(323.251 796) rotate(90)" stroke="#E0E0E0" stroke-width="0.5"/>
<line y1="-0.25" x2="202.9" y2="-0.25" transform="translate(363.752 796) rotate(90)" stroke="#E0E0E0" stroke-width="0.5"/>
<line y1="-0.25" x2="202.9" y2="-0.25" transform="translate(444.755 796) rotate(90)" stroke="#E0E0E0" stroke-width="0.5"/>
<line y1="-0.25" x2="202.9" y2="-0.25" transform="translate(485.257 796) rotate(90)" stroke="#E0E0E0" stroke-width="0.5"/>
<line y1="-0.5" x2="202.508" y2="-0.5" transform="translate(505.508 796) rotate(180)" stroke="#E0E0E0"/>
<line y1="-0.25" x2="202.508" y2="-0.25" transform="translate(505.508 836.58) rotate(180)" stroke="#E0E0E0" stroke-width="0.5"/>
<line y1="-0.25" x2="202.508" y2="-0.25" transform="translate(505.508 877.16) rotate(180)" stroke="#E0E0E0" stroke-width="0.5"/>
<line y1="-0.25" x2="202.508" y2="-0.25" transform="translate(505.508 917.74) rotate(180)" stroke="#E0E0E0" stroke-width="0.5"/>
<line y1="-0.25" x2="202.508" y2="-0.25" transform="translate(505.508 958.32) rotate(180)" stroke="#E0E0E0" stroke-width="0.5"/>
<line y1="-0.5" x2="203" y2="-0.5" transform="translate(506.07 999) rotate(180)" stroke="#E0E0E0"/>
<line y1="-0.25" x2="202.508" y2="-0.25" transform="translate(505.508 816.29) rotate(180)" stroke="#E0E0E0" stroke-width="0.5"/>
<line y1="-0.25" x2="202.508" y2="-0.25" transform="translate(505.508 856.87) rotate(180)" stroke="#E0E0E0" stroke-width="0.5"/>
<line y1="-0.5" x2="202.508" y2="-0.5" transform="translate(505.508 897.45) rotate(180)" stroke="#E0E0E0"/>
<line y1="-0.25" x2="202.508" y2="-0.25" transform="translate(505.508 938.03) rotate(180)" stroke="#E0E0E0" stroke-width="0.5"/>
<line y1="-0.25" x2="202.508" y2="-0.25" transform="translate(505.508 978.61) rotate(180)" stroke="#E0E0E0" stroke-width="0.5"/>
<line y1="-0.5" x2="202.9" y2="-0.5" transform="translate(404.254 796) rotate(90)" stroke="#E0E0E0"/>
<line y1="-0.5" x2="202.9" y2="-0.5" transform="translate(303 796) rotate(90)" stroke="#E0E0E0"/>
<line y1="-0.25" x2="202.9" y2="-0.25" transform="translate(949.431 999) rotate(90)" stroke="#E0E0E0" stroke-width="0.5"/>
<line y1="-0.25" x2="202.9" y2="-0.25" transform="translate(989.933 999) rotate(90)" stroke="#E0E0E0" stroke-width="0.5"/>
<line y1="-0.25" x2="202.9" y2="-0.25" transform="translate(1030.43 999) rotate(90)" stroke="#E0E0E0" stroke-width="0.5"/>
<line y1="-0.25" x2="202.9" y2="-0.25" transform="translate(1070.94 999) rotate(90)" stroke="#E0E0E0" stroke-width="0.5"/>
<line y1="-0.5" x2="203" y2="-0.5" transform="translate(1111 999) rotate(90)" stroke="#E0E0E0"/>
<line y1="-0.25" x2="202.9" y2="-0.25" transform="translate(929.181 999) rotate(90)" stroke="#E0E0E0" stroke-width="0.5"/>
<line y1="-0.25" x2="202.9" y2="-0.25" transform="translate(969.682 999) rotate(90)" stroke="#E0E0E0" stroke-width="0.5"/>
<line y1="-0.25" x2="202.9" y2="-0.25" transform="translate(1050.69 999) rotate(90)" stroke="#E0E0E0" stroke-width="0.5"/>
<line y1="-0.25" x2="202.9" y2="-0.25" transform="translate(1091.19 999) rotate(90)" stroke="#E0E0E0" stroke-width="0.5"/>
<line y1="-0.5" x2="202.508" y2="-0.5" transform="translate(1111.44 999) rotate(180)" stroke="#E0E0E0"/>
<line y1="-0.25" x2="202.508" y2="-0.25" transform="translate(1111.44 1039.58) rotate(180)" stroke="#E0E0E0" stroke-width="0.5"/>
<line y1="-0.25" x2="202.508" y2="-0.25" transform="translate(1111.44 1080.16) rotate(180)" stroke="#E0E0E0" stroke-width="0.5"/>
<line y1="-0.25" x2="202.508" y2="-0.25" transform="translate(1111.44 1120.74) rotate(180)" stroke="#E0E0E0" stroke-width="0.5"/>
<line y1="-0.25" x2="202.508" y2="-0.25" transform="translate(1111.44 1161.32) rotate(180)" stroke="#E0E0E0" stroke-width="0.5"/>
<line y1="-0.5" x2="203" y2="-0.5" transform="translate(1112 1202) rotate(180)" stroke="#E0E0E0"/>
<line y1="-0.25" x2="202.508" y2="-0.25" transform="translate(1111.44 1019.29) rotate(180)" stroke="#E0E0E0" stroke-width="0.5"/>
<line y1="-0.25" x2="202.508" y2="-0.25" transform="translate(1111.44 1059.87) rotate(180)" stroke="#E0E0E0" stroke-width="0.5"/>
<line y1="-0.5" x2="202.508" y2="-0.5" transform="translate(1111.44 1100.45) rotate(180)" stroke="#E0E0E0"/>
<line y1="-0.25" x2="202.508" y2="-0.25" transform="translate(1111.44 1141.03) rotate(180)" stroke="#E0E0E0" stroke-width="0.5"/>
<line y1="-0.25" x2="202.508" y2="-0.25" transform="translate(1111.44 1181.61) rotate(180)" stroke="#E0E0E0" stroke-width="0.5"/>
<line y1="-0.5" x2="202.9" y2="-0.5" transform="translate(1010.18 999) rotate(90)" stroke="#E0E0E0"/>
<line y1="-0.5" x2="202.9" y2="-0.5" transform="translate(908.93 999) rotate(90)" stroke="#E0E0E0"/>
<line y1="-0.25" x2="202.9" y2="-0.25" transform="translate(747.501 999) rotate(90)" stroke="#E0E0E0" stroke-width="0.5"/>
<line y1="-0.25" x2="202.9" y2="-0.25" transform="translate(788.003 999) rotate(90)" stroke="#E0E0E0" stroke-width="0.5"/>
<line y1="-0.25" x2="202.9" y2="-0.25" transform="translate(828.504 999) rotate(90)" stroke="#E0E0E0" stroke-width="0.5"/>
<line y1="-0.25" x2="202.9" y2="-0.25" transform="translate(869.006 999) rotate(90)" stroke="#E0E0E0" stroke-width="0.5"/>
<line y1="-0.5" x2="203" y2="-0.5" transform="translate(909.07 999) rotate(90)" stroke="#E0E0E0"/>
<line y1="-0.25" x2="202.9" y2="-0.25" transform="translate(727.251 999) rotate(90)" stroke="#E0E0E0" stroke-width="0.5"/>
<line y1="-0.25" x2="202.9" y2="-0.25" transform="translate(767.752 999) rotate(90)" stroke="#E0E0E0" stroke-width="0.5"/>
<line y1="-0.25" x2="202.9" y2="-0.25" transform="translate(848.755 999) rotate(90)" stroke="#E0E0E0" stroke-width="0.5"/>
<line y1="-0.25" x2="202.9" y2="-0.25" transform="translate(889.257 999) rotate(90)" stroke="#E0E0E0" stroke-width="0.5"/>
<line y1="-0.5" x2="202.508" y2="-0.5" transform="translate(909.508 999) rotate(180)" stroke="#E0E0E0"/>
<line y1="-0.25" x2="202.508" y2="-0.25" transform="translate(909.508 1039.58) rotate(180)" stroke="#E0E0E0" stroke-width="0.5"/>
<line y1="-0.25" x2="202.508" y2="-0.25" transform="translate(909.508 1080.16) rotate(180)" stroke="#E0E0E0" stroke-width="0.5"/>
<line y1="-0.25" x2="202.508" y2="-0.25" transform="translate(909.508 1120.74) rotate(180)" stroke="#E0E0E0" stroke-width="0.5"/>
<line y1="-0.25" x2="202.508" y2="-0.25" transform="translate(909.508 1161.32) rotate(180)" stroke="#E0E0E0" stroke-width="0.5"/>
<line y1="-0.5" x2="203" y2="-0.5" transform="translate(910.07 1202) rotate(180)" stroke="#E0E0E0"/>
<line y1="-0.25" x2="202.508" y2="-0.25" transform="translate(909.508 1019.29) rotate(180)" stroke="#E0E0E0" stroke-width="0.5"/>
<line y1="-0.25" x2="202.508" y2="-0.25" transform="translate(909.508 1059.87) rotate(180)" stroke="#E0E0E0" stroke-width="0.5"/>
<line y1="-0.5" x2="202.508" y2="-0.5" transform="translate(909.508 1100.45) rotate(180)" stroke="#E0E0E0"/>
<line y1="-0.25" x2="202.508" y2="-0.25" transform="translate(909.508 1141.03) rotate(180)" stroke="#E0E0E0" stroke-width="0.5"/>
<line y1="-0.25" x2="202.508" y2="-0.25" transform="translate(909.508 1181.61) rotate(180)" stroke="#E0E0E0" stroke-width="0.5"/>
<line y1="-0.5" x2="202.9" y2="-0.5" transform="translate(808.254 999) rotate(90)" stroke="#E0E0E0"/>
<line y1="-0.5" x2="202.9" y2="-0.5" transform="translate(707 999) rotate(90)" stroke="#E0E0E0"/>
<line y1="-0.25" x2="202.9" y2="-0.25" transform="translate(545.431 999) rotate(90)" stroke="#E0E0E0" stroke-width="0.5"/>
<line y1="-0.25" x2="202.9" y2="-0.25" transform="translate(585.933 999) rotate(90)" stroke="#E0E0E0" stroke-width="0.5"/>
<line y1="-0.25" x2="202.9" y2="-0.25" transform="translate(626.434 999) rotate(90)" stroke="#E0E0E0" stroke-width="0.5"/>
<line y1="-0.25" x2="202.9" y2="-0.25" transform="translate(666.936 999) rotate(90)" stroke="#E0E0E0" stroke-width="0.5"/>
<line y1="-0.5" x2="203" y2="-0.5" transform="translate(707 999) rotate(90)" stroke="#E0E0E0"/>
<line y1="-0.25" x2="202.9" y2="-0.25" transform="translate(525.181 999) rotate(90)" stroke="#E0E0E0" stroke-width="0.5"/>
<line y1="-0.25" x2="202.9" y2="-0.25" transform="translate(565.682 999) rotate(90)" stroke="#E0E0E0" stroke-width="0.5"/>
<line y1="-0.25" x2="202.9" y2="-0.25" transform="translate(646.685 999) rotate(90)" stroke="#E0E0E0" stroke-width="0.5"/>
<line y1="-0.25" x2="202.9" y2="-0.25" transform="translate(687.187 999) rotate(90)" stroke="#E0E0E0" stroke-width="0.5"/>
<line y1="-0.5" x2="202.508" y2="-0.5" transform="translate(707.438 999) rotate(180)" stroke="#E0E0E0"/>
<line y1="-0.25" x2="202.508" y2="-0.25" transform="translate(707.438 1039.58) rotate(180)" stroke="#E0E0E0" stroke-width="0.5"/>
<line y1="-0.25" x2="202.508" y2="-0.25" transform="translate(707.438 1080.16) rotate(180)" stroke="#E0E0E0" stroke-width="0.5"/>
<line y1="-0.25" x2="202.508" y2="-0.25" transform="translate(707.438 1120.74) rotate(180)" stroke="#E0E0E0" stroke-width="0.5"/>
<line y1="-0.25" x2="202.508" y2="-0.25" transform="translate(707.438 1161.32) rotate(180)" stroke="#E0E0E0" stroke-width="0.5"/>
<line y1="-0.5" x2="203" y2="-0.5" transform="translate(708 1202) rotate(180)" stroke="#E0E0E0"/>
<line y1="-0.25" x2="202.508" y2="-0.25" transform="translate(707.438 1019.29) rotate(180)" stroke="#E0E0E0" stroke-width="0.5"/>
<line y1="-0.25" x2="202.508" y2="-0.25" transform="translate(707.438 1059.87) rotate(180)" stroke="#E0E0E0" stroke-width="0.5"/>
<line y1="-0.5" x2="202.508" y2="-0.5" transform="translate(707.438 1100.45) rotate(180)" stroke="#E0E0E0"/>
<line y1="-0.25" x2="202.508" y2="-0.25" transform="translate(707.438 1141.03) rotate(180)" stroke="#E0E0E0" stroke-width="0.5"/>
<line y1="-0.25" x2="202.508" y2="-0.25" transform="translate(707.438 1181.61) rotate(180)" stroke="#E0E0E0" stroke-width="0.5"/>
<line y1="-0.5" x2="202.9" y2="-0.5" transform="translate(606.184 999) rotate(90)" stroke="#E0E0E0"/>
<line y1="-0.5" x2="202.9" y2="-0.5" transform="translate(504.93 999) rotate(90)" stroke="#E0E0E0"/>
<line y1="-0.25" x2="202.9" y2="-0.25" transform="translate(343.501 999) rotate(90)" stroke="#E0E0E0" stroke-width="0.5"/>
<line y1="-0.25" x2="202.9" y2="-0.25" transform="translate(384.003 999) rotate(90)" stroke="#E0E0E0" stroke-width="0.5"/>
<line y1="-0.25" x2="202.9" y2="-0.25" transform="translate(424.504 999) rotate(90)" stroke="#E0E0E0" stroke-width="0.5"/>
<line y1="-0.25" x2="202.9" y2="-0.25" transform="translate(465.006 999) rotate(90)" stroke="#E0E0E0" stroke-width="0.5"/>
<line y1="-0.5" x2="203" y2="-0.5" transform="translate(505.07 999) rotate(90)" stroke="#E0E0E0"/>
<line y1="-0.25" x2="202.9" y2="-0.25" transform="translate(323.251 999) rotate(90)" stroke="#E0E0E0" stroke-width="0.5"/>
<line y1="-0.25" x2="202.9" y2="-0.25" transform="translate(363.752 999) rotate(90)" stroke="#E0E0E0" stroke-width="0.5"/>
<line y1="-0.25" x2="202.9" y2="-0.25" transform="translate(444.755 999) rotate(90)" stroke="#E0E0E0" stroke-width="0.5"/>
<line y1="-0.25" x2="202.9" y2="-0.25" transform="translate(485.257 999) rotate(90)" stroke="#E0E0E0" stroke-width="0.5"/>
<line y1="-0.5" x2="202.508" y2="-0.5" transform="translate(505.508 999) rotate(180)" stroke="#E0E0E0"/>
<line y1="-0.25" x2="202.508" y2="-0.25" transform="translate(505.508 1039.58) rotate(180)" stroke="#E0E0E0" stroke-width="0.5"/>
<line y1="-0.25" x2="202.508" y2="-0.25" transform="translate(505.508 1080.16) rotate(180)" stroke="#E0E0E0" stroke-width="0.5"/>
<line y1="-0.25" x2="202.508" y2="-0.25" transform="translate(505.508 1120.74) rotate(180)" stroke="#E0E0E0" stroke-width="0.5"/>
<line y1="-0.25" x2="202.508" y2="-0.25" transform="translate(505.508 1161.32) rotate(180)" stroke="#E0E0E0" stroke-width="0.5"/>
<line y1="-0.5" x2="203" y2="-0.5" transform="translate(506.07 1202) rotate(180)" stroke="#E0E0E0"/>
<line y1="-0.25" x2="202.508" y2="-0.25" transform="translate(505.508 1019.29) rotate(180)" stroke="#E0E0E0" stroke-width="0.5"/>
<line y1="-0.25" x2="202.508" y2="-0.25" transform="translate(505.508 1059.87) rotate(180)" stroke="#E0E0E0" stroke-width="0.5"/>
<line y1="-0.5" x2="202.508" y2="-0.5" transform="translate(505.508 1100.45) rotate(180)" stroke="#E0E0E0"/>
<line y1="-0.25" x2="202.508" y2="-0.25" transform="translate(505.508 1141.03) rotate(180)" stroke="#E0E0E0" stroke-width="0.5"/>
<line y1="-0.25" x2="202.508" y2="-0.25" transform="translate(505.508 1181.61) rotate(180)" stroke="#E0E0E0" stroke-width="0.5"/>
<line y1="-0.5" x2="202.9" y2="-0.5" transform="translate(404.254 999) rotate(90)" stroke="#E0E0E0"/>
<line y1="-0.5" x2="202.9" y2="-0.5" transform="translate(303 999) rotate(90)" stroke="#E0E0E0"/>
<rect width="1116.13" height="504.103" transform="translate(2 109)" fill="url(#paint0_linear)"/>
<rect width="936" height="503.93" transform="translate(273 1325) rotate(-90)" fill="url(#paint1_linear)"/>
<rect width="936" height="498.597" transform="translate(1185.86 1527.38) rotate(-165.916)" fill="url(#paint2_linear)"/>
</g>
<defs>
<linearGradient id="paint0_linear" x2="1" gradientUnits="userSpaceOnUse" gradientTransform="matrix(-4.67839 831.685 -1841.43 -16.7017 1478.78 8.35085)">
<stop stop-color="white"/>
<stop offset="1" stop-color="white" stop-opacity="0"/>
</linearGradient>
<linearGradient id="paint1_linear" x2="1" gradientUnits="userSpaceOnUse" gradientTransform="matrix(-3.92335 831.399 -1544.24 -16.696 1240.12 8.34798)">
<stop stop-color="white"/>
<stop offset="1" stop-color="white" stop-opacity="0"/>
</linearGradient>
<linearGradient id="paint2_linear" x2="1" gradientUnits="userSpaceOnUse" gradientTransform="matrix(8.02286 1156.75 -2168.8 604.743 1552.4 -302.372)">
<stop stop-color="white"/>
<stop offset="1" stop-color="white" stop-opacity="0"/>
</linearGradient>
<clipPath id="clip0">
<rect width="1112" height="1418" fill="white"/>
</clipPath>
</defs>
</svg>
